<svg width="32" height="32" viewBox="0 0 32 32" fill="none" xmlns="http://www.w3.org/2000/svg">
<g clip-path="url(#clip0_73_37)">
<path d="M30.1999 19.1867L15.9999 29.5067L1.79995 19.1867C1.60958 19.0467 1.46837 18.85 1.39653 18.6249C1.32468 18.3998 1.32588 18.1577 1.39995 17.9333L3.02662 12.8933L6.27995 2.88001C6.3115 2.79842 6.36173 2.72536 6.42662 2.66668C6.53227 2.57017 6.67019 2.51666 6.81328 2.51666C6.95638 2.51666 7.0943 2.57017 7.19995 2.66668C7.26846 2.7329 7.31894 2.8155 7.34662 2.90668L10.5999 12.8933H21.3999L24.6533 2.88001C24.6848 2.79842 24.7351 2.72536 24.8 2.66668C24.9056 2.57017 25.0435 2.51666 25.1866 2.51666C25.3297 2.51666 25.4676 2.57017 25.5733 2.66668C25.6418 2.7329 25.6923 2.8155 25.72 2.90668L28.9733 12.92L30.6666 17.9333C30.734 18.1647 30.725 18.4115 30.6409 18.6373C30.5568 18.8631 30.4022 19.0557 30.1999 19.1867Z" stroke="#1E1E1E" stroke-width="4" stroke-linecap="round" stroke-linejoin="round"/>
</g>
<defs>
<clipPath id="clip0_73_37">
<rect width="32" height="32" fill="white"/>
</clipPath>
</defs>
</svg>
